<svg width="200" height="200" viewBox="0 0 200 200" fill="none" xmlns="http://www.w3.org/2000/svg">
<rect width="200" height="200" rx="100" fill="black"/>
<path d="M133.494 99.9486C133.494 96.6394 133.015 93.8454 132.056 91.5664C131.13 89.2874 129.837 87.5392 128.176 86.3216C126.516 85.1353 124.632 84.5422 122.524 84.5422C120.768 84.4797 119.235 84.8387 117.925 85.6192C116.616 86.4309 115.482 87.5392 114.524 88.944C113.598 90.3489 112.784 91.9722 112.081 93.8141C111.411 95.656 110.836 97.6228 110.357 99.7145L108.249 108.331C107.291 112.514 106.014 116.354 104.417 119.851C102.82 123.347 100.856 126.375 98.5252 128.935C96.194 131.495 93.4476 133.478 90.2861 134.882C87.1246 136.318 83.5 137.052 79.4124 137.083C73.4087 137.052 68.2034 135.554 63.7964 132.588C59.4213 129.653 56.0203 125.408 53.5933 119.851C51.1982 114.325 50.0007 107.66 50.0007 99.855V81.5278V72.4446C50.0007 67.643 53.8932 63.7505 58.6948 63.7505C63.4965 63.7505 67.389 67.643 67.389 72.4446V81.5278V99.6208C67.389 103.055 67.9 106.036 68.9219 108.565C69.9438 111.125 71.3649 113.107 73.1851 114.512C75.0054 115.917 77.0971 116.619 79.4603 116.619C81.6637 116.619 83.516 115.979 85.0169 114.699C86.5178 113.451 87.7952 111.609 88.849 109.174C89.9029 106.77 90.8609 103.82 91.7231 100.323L94.4056 89.8806C96.4175 81.7949 99.5631 75.4107 103.842 70.7279C108.122 66.045 113.886 63.7192 121.135 63.7505C127.075 63.7192 132.264 65.2646 136.703 68.3865C141.142 71.5395 144.607 75.8633 147.098 81.3578C149.589 86.8524 150.834 93.0961 150.834 100.089V119.306V128.413C150.834 133.202 146.952 137.083 142.164 137.083C137.375 137.083 133.494 133.202 133.494 128.413V119.306V99.9486Z" fill="white"/>
</svg>
