<svg width="200" height="200" viewBox="0 0 200 200" fill="none" xmlns="http://www.w3.org/2000/svg">
<rect width="200" height="200" rx="100" fill="white"/>
<path d="M133.076 99.5321C133.076 96.2229 132.597 93.4288 131.638 91.1499C130.712 88.8709 129.419 87.1227 127.758 85.9051C126.098 84.7188 124.214 84.1257 122.106 84.1257C120.35 84.0632 118.817 84.4222 117.507 85.2027C116.198 86.0144 115.064 87.1227 114.106 88.5275C113.18 89.9323 112.366 91.5557 111.663 93.3976C110.993 95.2395 110.418 97.2063 109.939 99.298L107.831 107.914C106.873 112.098 105.596 115.938 103.999 119.434C102.402 122.931 100.438 125.959 98.1072 128.519C95.776 131.079 93.0296 133.061 89.8681 134.466C86.7066 135.902 83.082 136.636 78.9944 136.667C72.9907 136.636 67.7854 135.137 63.3784 132.171C59.0034 129.237 55.6024 124.991 53.1753 119.434C50.7802 113.908 49.5827 107.243 49.5827 99.4385V81.1113V72.0281C49.5827 67.2265 53.4752 63.334 58.2769 63.334C63.0785 63.334 66.971 67.2265 66.971 72.0281V81.1113V99.2043C66.971 102.638 67.482 105.62 68.5039 108.148C69.5258 110.708 70.9469 112.691 72.7672 114.096C74.5874 115.501 76.6791 116.203 79.0423 116.203C81.2458 116.203 83.098 115.563 84.5989 114.283C86.0998 113.034 87.3772 111.192 88.4311 108.757C89.4849 106.353 90.4429 103.403 91.3052 99.9067L93.9877 89.4641C95.9995 81.3784 99.1451 74.9942 103.424 70.3114C107.704 65.6285 113.468 63.3027 120.717 63.334C126.657 63.3027 131.846 64.8481 136.285 67.9699C140.724 71.123 144.189 75.4468 146.68 80.9413C149.171 86.4358 150.416 92.6796 150.416 99.6726V118.889V127.997C150.416 132.785 146.534 136.667 141.746 136.667C136.957 136.667 133.076 132.785 133.076 127.997V118.889V99.5321Z" fill="black"/>
</svg>
